<svg width="24" height="24" viewBox="0 0 24 24" fill="none" xmlns="http://www.w3.org/2000/svg">
<path fill-rule="evenodd" clip-rule="evenodd" d="M8.88544 4.74628C9.96338 4.74628 10.9972 5.17449 11.7594 5.9367C11.8733 6.05066 11.9798 6.17068 12.0785 6.29601C12.1772 6.17068 12.2837 6.05066 12.3977 5.9367C13.1599 5.17449 14.1937 4.74628 15.2716 4.74628H17.1803C17.6635 4.74628 18.0553 5.13803 18.0553 5.62128C18.0553 6.10453 17.6635 6.49628 17.1803 6.49628H15.2716C14.6578 6.49628 14.0691 6.74011 13.6351 7.17414C13.2011 7.60817 12.9573 8.19684 12.9573 8.81065L12.9573 16.2663L15.4502 13.7733C15.792 13.4316 16.346 13.4316 16.6877 13.7733C17.0294 14.115 17.0294 14.6691 16.6877 15.0108L12.701 18.9975C12.3593 19.3392 11.8052 19.3392 11.4635 18.9975L7.47682 15.0108C7.13511 14.6691 7.13511 14.115 7.47682 13.7733C7.81853 13.4316 8.37255 13.4316 8.71426 13.7733L11.2073 16.2663L11.2073 8.92529C11.2023 8.88777 11.1998 8.8495 11.1998 8.81065C11.1998 8.19684 10.956 7.60817 10.5219 7.17414C10.0879 6.74011 9.49925 6.49628 8.88544 6.49628L6.81982 6.49628C6.33658 6.49628 5.94482 6.10453 5.94482 5.62128C5.94482 5.13803 6.33658 4.74628 6.81982 4.74628H8.88544Z" fill="#FF9900"/>
</svg>
