<svg width="24" height="24" viewBox="0 0 24 24" fill="none" xmlns="http://www.w3.org/2000/svg">
<path d="M5 6.39304V10.5933M5 10.5933H9.2003M5 10.5933L8.24823 7.54112C9.21494 6.57605 10.4691 5.95129 11.8218 5.76098C13.1744 5.57067 14.5523 5.82512 15.7477 6.48598C16.9432 7.14685 17.8915 8.17834 18.4498 9.42503C19.0081 10.6717 19.146 12.0661 18.8429 13.398C18.5398 14.7299 17.8121 15.9273 16.7693 16.8096C15.7266 17.692 14.4253 18.2115 13.0616 18.29C11.6979 18.3685 10.3456 18.0017 9.20846 17.2448C8.07135 16.4879 7.21103 15.3819 6.75712 14.0936" stroke="#FF9900" stroke-width="1.75" stroke-linecap="round" stroke-linejoin="round"/>
</svg>
