<svg width="472" height="233" viewBox="0 0 472 233" fill="none" xmlns="http://www.w3.org/2000/svg">
<g clip-path="url(#clip0_488_1487)">
<path d="M195.955 139.597H195.955C188.153 139.597 181.828 145.922 181.828 153.724V153.724C181.828 161.526 188.153 167.851 195.955 167.851H195.955C203.757 167.851 210.082 161.526 210.082 153.724V153.724C210.082 145.922 203.757 139.597 195.955 139.597Z" stroke="white" stroke-opacity="0.1" stroke-width="0.911416"/>
<path d="M188.774 153.633L194.5 152.27L195.863 146.544L197.226 152.27L202.952 153.633L197.226 154.996L195.863 160.722L194.5 154.996L188.774 153.633Z" fill="white"/>
<path d="M30.843 103.553L34.9326 102.579L35.9064 98.4892L36.8801 102.579L40.9698 103.553L36.8801 104.526L35.9064 108.616L34.9326 104.526L30.843 103.553Z" fill="white"/>
<path fill-rule="evenodd" clip-rule="evenodd" d="M351.553 57.8961L208.026 145.54C208.197 145.792 208.359 146.048 208.514 146.31L352.054 58.6587C351.874 58.414 351.707 58.1595 351.553 57.8961ZM356.335 61.7583L321.015 249.677L311.882 252.013L207.172 163.044C206.977 163.278 206.776 163.505 206.567 163.726L310.801 252.29L252.174 267.285L202.464 166.778C202.192 166.913 201.916 167.041 201.636 167.159L251.272 267.516L22.473 326.036L185.698 164.09C185.482 163.877 185.272 163.656 185.07 163.429L20.5068 326.703V537.392L158.765 549.712L220.168 656.597L220.958 656.143L160.073 550.159L393.786 639.105L605.222 501.649L554.103 190.373L365.653 59.0286C365.458 59.2657 365.251 59.4922 365.032 59.7071L552.608 190.442L447.319 217.372L362.532 61.4203C362.254 61.5457 361.968 61.6568 361.676 61.7526L446.409 217.605L321.989 249.428L357.219 61.9937C356.918 61.9306 356.623 61.8519 356.335 61.7583ZM43.9165 107.471L182.088 149.198C181.994 149.486 181.909 149.778 181.833 150.073L43.521 108.304C43.6671 108.035 43.7993 107.757 43.9165 107.471ZM23.3393 326.755L251.685 268.351L299.067 364.15L23.3393 326.755ZM22.4669 327.557L299.018 365.063L208.774 483.344L22.4669 327.557ZM22.8453 329.061L208.221 484.07L159.08 548.477L22.8453 329.061ZM21.4183 328.491L158.173 548.744L21.4183 536.558V328.491ZM391.358 637.206L160.772 549.45L265.362 531.85L391.358 637.206ZM208.921 484.655L264.442 531.081L160.104 548.638L208.921 484.655ZM209.474 483.93L265.625 530.882L351.383 516.451L299.701 365.671L209.474 483.93ZM392.771 637.2L266.545 531.651L351.683 517.325L392.771 637.2ZM393.744 637.226L352.594 517.172L442.71 502.008L393.744 637.226ZM603.187 501.885H443.724L394.623 637.474L603.187 501.885ZM553.526 192.481L603.857 498.965L508.163 329.284L508.16 329.278L506.808 326.792L553.526 192.481ZM552.976 191.289L506.22 325.71L447.768 218.198L552.976 191.289ZM505.814 326.872L446.858 218.431L321.803 250.416L320.178 259.062L481.009 395.715L505.814 326.872ZM312.733 252.736L320.829 250.666L319.379 258.382L312.733 252.736ZM311.652 253.013L319.185 259.414L299.66 363.293L252.587 268.12L311.652 253.013ZM442.43 501.131L300.891 366.332L352.294 516.298L442.43 501.131ZM480.679 396.63L443.212 500.617L300.35 364.558L319.984 260.093L480.679 396.63ZM603.484 500.973L481.421 397.261L444.053 500.973H603.484ZM603.072 499.427L481.751 396.345L506.383 327.983L507.363 329.72L507.366 329.726L603.072 499.427Z" fill="white" fill-opacity="0.1"/>
<path d="M353.889 52.9185L357.979 51.9447L358.953 47.855L359.927 51.9447L364.016 52.9185L359.927 53.8922L358.953 57.9819L357.979 53.8922L353.889 52.9185Z" fill="white"/>
</g>
<defs>
<clipPath id="clip0_488_1487">
<rect width="472" height="233" fill="white"/>
</clipPath>
</defs>
</svg>
