<svg width="620" height="628" viewBox="0 0 620 628" fill="none" xmlns="http://www.w3.org/2000/svg">
<path d="M21.0813 283.893V493.975L159.161 506.279M21.0813 283.893L159.161 506.279M21.0813 283.893L195.617 110.724M21.0813 283.893L299.975 321.717M21.0813 283.893L393.85 595.597M21.0813 283.893L553.804 147.637M159.161 506.279L443.523 458.429M159.161 506.279L220.681 613.37M159.161 506.279L299.975 321.717M159.161 506.279L393.85 595.597M195.617 110.724L35.664 62.4193M195.617 110.724L358.305 11.38M195.617 110.724L604.843 458.429M195.617 110.724L299.975 321.717M358.305 11.38L553.804 147.637M358.305 11.38L299.975 321.717M358.305 11.38L507.881 286.502M553.804 147.637L604.843 458.429M553.804 147.637L506.41 283.893M604.843 458.429L393.85 595.597M604.843 458.429H443.523M604.843 458.429L507.881 286.502M393.85 595.597L443.523 458.429M393.85 595.597L299.975 321.717M443.523 458.429L506.41 283.893M443.523 458.429L299.975 321.717M506.41 283.893L507.881 286.502" stroke="white" stroke-opacity="0.1"/>
<rect x="532.841" y="127.585" width="41.0137" height="41.0137" rx="20.5069" fill="#0C0E17"/>
<rect x="532.841" y="127.585" width="41.0137" height="41.0137" rx="20.5069" stroke="#FF9900" stroke-width="0.911416"/>
<path d="M543.192 148.063L551.371 146.115L553.319 137.936L555.266 146.115L563.446 148.063L555.266 150.01L553.319 158.19L551.371 150.01L543.192 148.063Z" fill="white"/>
<rect x="492.283" y="270.222" width="29.1653" height="29.1653" rx="14.5827" fill="#0E1019"/>
<rect x="492.739" y="270.678" width="28.2539" height="28.2539" rx="14.1269" stroke="white" stroke-opacity="0.1" stroke-width="0.911416"/>
<path d="M499.686 284.713L505.411 283.35L506.774 277.624L508.138 283.35L513.863 284.713L508.138 286.076L506.774 291.802L505.411 286.076L499.686 284.713Z" fill="white"/>
<rect x="181.491" y="96.1417" width="29.1653" height="29.1653" rx="14.5827" fill="#0E1019"/>
<rect x="181.946" y="96.5974" width="28.2539" height="28.2539" rx="14.1269" stroke="white" stroke-opacity="0.1" stroke-width="0.911416"/>
<path d="M188.893 110.633L194.618 109.27L195.982 103.544L197.345 109.27L203.07 110.633L197.345 111.996L195.982 117.722L194.618 111.996L188.893 110.633Z" fill="white"/>
<rect x="0.57436" y="263.387" width="41.0137" height="41.0137" rx="20.5069" fill="#0C0E17"/>
<rect x="0.57436" y="263.387" width="41.0137" height="41.0137" rx="20.5069" stroke="#FF9900" stroke-width="0.911416"/>
<path d="M10.925 283.864L19.1044 281.916L21.0519 273.737L22.9994 281.916L31.1787 283.864L22.9994 285.811L21.0519 293.991L19.1044 285.811L10.925 283.864Z" fill="white"/>
<rect x="422.56" y="436.556" width="41.0137" height="41.0137" rx="20.5069" fill="#0C0E17"/>
<rect x="422.56" y="436.556" width="41.0137" height="41.0137" rx="20.5069" stroke="#FF9900" stroke-width="0.911416"/>
<path d="M432.91 457.033L441.09 455.085L443.037 446.906L444.985 455.085L453.164 457.033L444.985 458.98L443.037 467.159L441.09 458.98L432.91 457.033Z" fill="white"/>
<rect x="0.57436" y="473.924" width="41.0137" height="41.0137" rx="20.5069" fill="#0C0E17"/>
<rect x="0.57436" y="473.924" width="41.0137" height="41.0137" rx="20.5069" stroke="#FF9900" stroke-width="0.911416"/>
<path d="M10.925 494.401L19.1044 492.453L21.0519 484.274L22.9994 492.453L31.1787 494.401L22.9994 496.348L21.0519 504.528L19.1044 496.348L10.925 494.401Z" fill="white"/>
<rect x="590.716" y="443.391" width="29.1653" height="29.1653" rx="14.5827" fill="#0E1019"/>
<rect x="591.172" y="443.847" width="28.2539" height="28.2539" rx="14.1269" stroke="white" stroke-opacity="0.1" stroke-width="0.911416"/>
<path d="M598.118 457.882L603.843 456.519L605.207 450.793L606.57 456.519L612.295 457.882L606.57 459.245L605.207 464.971L603.843 459.245L598.118 457.882Z" fill="white"/>
<rect x="144.122" y="491.696" width="29.1653" height="29.1653" rx="14.5827" fill="#0E1019"/>
<rect x="144.578" y="492.152" width="28.2539" height="28.2539" rx="14.1269" stroke="white" stroke-opacity="0.1" stroke-width="0.911416"/>
<path d="M151.524 506.187L157.25 504.824L158.613 499.098L159.976 504.824L165.702 506.187L159.976 507.55L158.613 513.276L157.25 507.55L151.524 506.187Z" fill="white"/>
<rect x="206.098" y="598.332" width="29.1653" height="29.1653" rx="14.5827" fill="#0E1019"/>
<rect x="206.554" y="598.787" width="28.2539" height="28.2539" rx="14.1269" stroke="white" stroke-opacity="0.1" stroke-width="0.911416"/>
<path d="M213.501 612.823L219.226 611.46L220.59 605.734L221.953 611.46L227.678 612.823L221.953 614.186L220.59 619.912L219.226 614.186L213.501 612.823Z" fill="white"/>
<rect x="27.4612" y="51.5836" width="17.2156" height="18.2283" rx="8.60781" fill="#0C0E16"/>
<path d="M30.9617 60.5526L35.0514 59.5789L36.0251 55.4892L36.9988 59.5789L41.0885 60.5526L36.9988 61.5263L36.0251 65.616L35.0514 61.5263L30.9617 60.5526Z" fill="white"/>
<rect x="350.507" y="0.949341" width="17.2156" height="18.2283" rx="8.60781" fill="#0B0D15"/>
<path d="M354.008 9.91846L358.098 8.94472L359.071 4.85504L360.045 8.94472L364.135 9.91846L360.045 10.8922L359.071 14.9819L358.098 10.8922L354.008 9.91846Z" fill="white"/>
<rect x="385.951" y="587.293" width="17.2156" height="18.2283" rx="8.60781" fill="#11131C"/>
<path d="M389.452 596.262L393.542 595.289L394.516 591.199L395.489 595.289L399.579 596.262L395.489 597.236L394.516 601.326L393.542 597.236L389.452 596.262Z" fill="white"/>
</svg>
