<svg width="33" height="33" viewBox="0 0 33 33" fill="none" xmlns="http://www.w3.org/2000/svg">
<path fill-rule="evenodd" clip-rule="evenodd" d="M30 15C30 16.7904 29.6863 18.5076 29.1109 20.0996C28.2577 19.7152 27.3112 19.5014 26.3148 19.5014C22.5512 19.5014 19.5002 22.5524 19.5002 26.3159C19.5002 27.3121 19.714 28.2584 20.0982 29.1114C18.5066 29.6865 16.7899 30 15 30C6.71573 30 0 23.2843 0 15C0 6.71573 6.71573 0 15 0C23.2843 0 30 6.71573 30 15Z" fill="white"/>
<path fill-rule="evenodd" clip-rule="evenodd" d="M15 29C22.732 29 29 22.732 29 15C29 7.26801 22.732 1 15 1C7.26801 1 1 7.26801 1 15C1 22.732 7.26801 29 15 29ZM15 30C23.2843 30 30 23.2843 30 15C30 6.71573 23.2843 0 15 0C6.71573 0 0 6.71573 0 15C0 23.2843 6.71573 30 15 30Z" fill="black" fill-opacity="0.2"/>
<path d="M32.0262 26.2612C32.0262 29.4458 29.4446 32.0274 26.2601 32.0274C23.0755 32.0274 20.4939 29.4458 20.4939 26.2612C20.4939 23.0766 23.0755 20.495 26.2601 20.495C29.4446 20.495 32.0262 23.0766 32.0262 26.2612Z" fill="#F7931A"/>
<path d="M18.955 9.10833L16.2164 13.1771C16.027 13.4542 16.3912 13.7896 16.6534 13.5562L19.3483 11.2083C19.4211 11.15 19.5231 11.1937 19.5231 11.2958V18.6312C19.5231 18.7333 19.392 18.7771 19.3337 18.7042L11.1761 8.93333C10.9139 8.6125 10.5352 8.4375 10.1127 8.4375H9.82138C9.06389 8.4375 8.4375 9.06458 8.4375 9.8375V20.1625C8.4375 20.9354 9.06389 21.5625 9.83595 21.5625C10.3167 21.5625 10.7682 21.3146 11.0305 20.8917L13.7691 16.8229C13.9584 16.5458 13.5943 16.2104 13.3321 16.4437L10.6371 18.7771C10.5643 18.8354 10.4623 18.7917 10.4623 18.6896V11.3687C10.4623 11.2667 10.5934 11.2229 10.6517 11.2958L18.8093 21.0667C19.0715 21.3875 19.4648 21.5625 19.8727 21.5625H20.1641C20.9361 21.5625 21.5625 20.9354 21.5625 20.1625V9.8375C21.5625 9.06458 20.9361 8.4375 20.1641 8.4375C19.6688 8.4375 19.2172 8.68542 18.955 9.10833Z" fill="black"/>
<path d="M29.1156 25.5165C29.2351 24.7179 28.6271 24.2887 27.7958 24.0023L28.0655 22.9206L27.407 22.7565L27.1444 23.8098C26.9713 23.7666 26.7936 23.7259 26.6169 23.6856L26.8813 22.6254L26.2233 22.4613L25.9534 23.5427C25.8102 23.5101 25.6695 23.4778 25.533 23.4439L25.5337 23.4405L24.6257 23.2137L24.4505 23.917C24.4505 23.917 24.939 24.029 24.9287 24.0359C25.1954 24.1024 25.2436 24.2789 25.2356 24.4188L24.9284 25.6512C24.9467 25.6558 24.9706 25.6626 24.9968 25.6731C24.9749 25.6677 24.9515 25.6617 24.9272 25.6559L24.4966 27.3822C24.4641 27.4633 24.3813 27.5848 24.1949 27.5387C24.2015 27.5482 23.7163 27.4192 23.7163 27.4192L23.3894 28.173L24.2463 28.3866C24.4057 28.4266 24.5619 28.4684 24.7158 28.5077L24.4433 29.6018L25.101 29.7659L25.3708 28.6834C25.5505 28.7322 25.7249 28.7772 25.8956 28.8196L25.6267 29.897L26.2852 30.0611L26.5576 28.969C27.6805 29.1815 28.5247 29.0958 28.8801 28.0802C29.1665 27.2625 28.8659 26.7909 28.2751 26.4833C28.7054 26.3841 29.0295 26.1011 29.1159 25.5166L29.1157 25.5164L29.1156 25.5165ZM27.6112 27.6261C27.4077 28.4438 26.031 28.0018 25.5846 27.891L25.9462 26.4414C26.3925 26.5529 27.8239 26.7734 27.6112 27.6261H27.6112ZM27.8148 25.5046C27.6292 26.2484 26.4833 25.8705 26.1116 25.7779L26.4394 24.4632C26.8112 24.5559 28.0082 24.7288 27.8149 25.5046H27.8148Z" fill="white"/>
</svg>
