<svg width="32" height="32" viewBox="0 0 32 32" fill="none" xmlns="http://www.w3.org/2000/svg">
<rect width="32" height="32" rx="16" fill="#50AF95"/>
<rect x="0.5" y="0.5" width="31" height="31" rx="15.5" stroke="black" stroke-opacity="0.2"/>
<path fill-rule="evenodd" clip-rule="evenodd" d="M17.5461 16.8946C17.4598 16.9011 17.0136 16.9277 16.0182 16.9277C15.2266 16.9277 14.6645 16.904 14.4673 16.8946C11.4079 16.76 9.12439 16.2275 9.12439 15.5898C9.12439 14.9522 11.4079 14.4204 14.4673 14.2836V16.3642C14.6674 16.3786 15.2403 16.4124 16.0319 16.4124C16.9819 16.4124 17.4576 16.3729 17.5432 16.3649V14.2851C20.5961 14.4211 22.8747 14.9536 22.8747 15.5898C22.8747 16.226 20.5969 16.7586 17.5432 16.8939L17.5461 16.8946ZM17.5461 14.0699V12.208H21.8067V9.3689H10.2068V12.208H14.4666V14.0691C11.0042 14.2282 8.40039 14.9141 8.40039 15.7359C8.40039 16.5578 11.0042 17.243 14.4666 17.4027V23.3689H17.5454V17.4006C20.9999 17.2415 23.5994 16.5564 23.5994 15.7352C23.5994 14.9141 21.002 14.2289 17.5454 14.0691L17.5461 14.0699Z" fill="white"/>
</svg>
